<?xml version="1.0" encoding="utf-8"?>
<!-- Generator: Adobe Illustrator 20.1.0, SVG Export Plug-In . SVG Version: 6.00 Build 0)  -->
<svg version="1.1" id="Layer_1" xmlns="http://www.w3.org/2000/svg" xmlns:xlink="http://www.w3.org/1999/xlink" x="0px" y="0px"
	 viewBox="0 0 300 137" style="enable-background:new 0 0 300 137;" xml:space="preserve">
<style type="text/css">
	.st0{enable-background:new    ;}
	.st1{fill:#76A5FF;}
</style>
<g class="st0">
	<path class="st1" d="M53.3,96.3c0,4.8-1.6,8.4-4.9,11s-7.9,3.9-14,3.9h-5.5v18.5h-5.5V82.6h12.2C47.5,82.6,53.3,87.2,53.3,96.3z
		 M28.9,106.5h4.9c4.9,0,8.4-0.8,10.5-2.4c2.2-1.6,3.3-4.1,3.3-7.5c0-3.1-1-5.4-3.1-7c-2-1.5-5.2-2.3-9.5-2.3h-6.1V106.5z"/>
	<path class="st1" d="M86.5,129.7H60.2V82.6h26.3v4.9H65.7v15.2h19.5v4.8H65.7v17.3h20.8V129.7z"/>
	<path class="st1" d="M130.8,129.7h-6.3L98.8,90.2h-0.3c0.3,4.6,0.5,8.9,0.5,12.8v26.8H94V82.6h6.2l25.7,39.4h0.3
		c0-0.6-0.1-2.4-0.3-5.6c-0.2-3.1-0.2-5.4-0.2-6.8v-27h5.1V129.7z"/>
	<path class="st1" d="M178.4,105.7c0,7.8-2.1,13.7-6.3,17.8c-4.2,4.1-10.3,6.2-18.2,6.2h-13.1V82.6h14.4c7.3,0,13,2,17.1,6.1
		S178.4,98.4,178.4,105.7z M172.6,105.9c0-6.1-1.5-10.8-4.6-13.9s-7.7-4.7-13.7-4.7h-8V125h6.7c6.5,0,11.4-1.6,14.7-4.8
		S172.6,112.2,172.6,105.9z"/>
	<path class="st1" d="M185.9,129.7V82.6h5.5v47.1H185.9z"/>
	<path class="st1" d="M238.1,129.7h-6.3l-25.7-39.5h-0.3c0.3,4.6,0.5,8.9,0.5,12.8v26.8h-5.1V82.6h6.2l25.7,39.4h0.3
		c0-0.6-0.1-2.4-0.3-5.6c-0.2-3.1-0.2-5.4-0.2-6.8v-27h5.1V129.7z"/>
	<path class="st1" d="M268.8,105h16v22.9c-2.5,0.8-5,1.4-7.6,1.8s-5.6,0.6-9,0.6c-7.1,0-12.7-2.1-16.7-6.4c-4-4.2-6-10.2-6-17.8
		c0-4.9,1-9.2,2.9-12.9s4.8-6.5,8.5-8.4s8-2.9,13-2.9c5,0,9.7,0.9,14.1,2.8l-2.1,4.8c-4.3-1.8-8.3-2.7-12.3-2.7
		c-5.7,0-10.2,1.7-13.4,5.1s-4.8,8.2-4.8,14.2c0,6.4,1.6,11.2,4.7,14.5c3.1,3.3,7.7,4.9,13.7,4.9c3.3,0,6.5-0.4,9.6-1.1v-14.5h-10.5
		V105z"/>
</g>
<g class="st0">
	<path class="st1" d="M58.3,56.7h-5.5V9.6h26.3v4.9H58.3v17.2h19.5v4.9H58.3V56.7z"/>
	<path class="st1" d="M89.4,37.1v19.6h-5.5V9.6h12.9c5.8,0,10,1.1,12.8,3.3c2.8,2.2,4.1,5.5,4.1,10c0,6.2-3.2,10.4-9.5,12.6
		l12.8,21.2h-6.5L99.2,37.1H89.4z M89.4,32.4h7.5c3.9,0,6.7-0.8,8.5-2.3c1.8-1.5,2.7-3.8,2.7-6.9c0-3.1-0.9-5.4-2.8-6.7
		s-4.8-2.1-8.8-2.1h-7.1V32.4z"/>
	<path class="st1" d="M121.8,56.7V9.6h5.5v47.1H121.8z"/>
	<path class="st1" d="M163.4,56.7h-26.3V9.6h26.3v4.9h-20.8v15.2h19.5v4.8h-19.5v17.3h20.8V56.7z"/>
	<path class="st1" d="M207.7,56.7h-6.3l-25.7-39.5h-0.3c0.3,4.6,0.5,8.9,0.5,12.8v26.8h-5.1V9.6h6.2L202.8,49h0.3
		c0-0.6-0.1-2.4-0.3-5.6c-0.2-3.1-0.2-5.4-0.2-6.8v-27h5.1V56.7z"/>
	<path class="st1" d="M255.3,32.7c0,7.8-2.1,13.7-6.3,17.8c-4.2,4.1-10.3,6.2-18.2,6.2h-13.1V9.6h14.4c7.3,0,13,2,17.1,6.1
		S255.3,25.4,255.3,32.7z M249.5,32.9c0-6.1-1.5-10.8-4.6-13.9s-7.7-4.7-13.7-4.7h-8V52h6.7c6.5,0,11.4-1.6,14.7-4.8
		S249.5,39.2,249.5,32.9z"/>
</g>
</svg>
