<?xml version="1.0" encoding="utf-8"?>
<!-- Generator: Adobe Illustrator 20.1.0, SVG Export Plug-In . SVG Version: 6.00 Build 0)  -->
<svg version="1.1" id="Layer_1" xmlns="http://www.w3.org/2000/svg" xmlns:xlink="http://www.w3.org/1999/xlink" x="0px" y="0px"
	 viewBox="0 0 300 300" style="enable-background:new 0 0 300 300;" xml:space="preserve">
<style type="text/css">
	.st0{fill:#FFFFFF;}
</style>
<path class="st0" d="M223,267.8c-2.3,0-5-1-7-2.7l-46.3-41.3c-2-1.7-4.3-2.7-7-2.7H56.1c-17.3,0-31.3-14-31.3-31.3V64.9
	c0-17.3,14-31.3,31.3-31.3h187.2c17.3,0,31.3,14,31.3,31.3v124.9c0,17.3-14,31.3-31.3,31.3h-20.6c-5.7,0-10.3-4.7-10.3-10.3
	c0-5.7,4.7-10.3,10.3-10.3h20.6c5.7,0,10.3-4.7,10.3-10.3V64.9c0-5.7-4.7-10.3-10.3-10.3H56.4c-5.7,0-10.3,4.7-10.3,10.3v124.9
	c0,5.7,4.7,10.3,10.3,10.3H163c7.7,0,15,3,21,8l46,41.6c4.3,4,4.7,10.3,0.7,14.7C228.6,266.8,225.6,267.8,223,267.8z"/>
</svg>
