<?xml version="1.0" encoding="utf-8"?>
<!-- Generator: Adobe Illustrator 20.1.0, SVG Export Plug-In . SVG Version: 6.00 Build 0)  -->
<svg version="1.1" id="Layer_1" xmlns="http://www.w3.org/2000/svg" xmlns:xlink="http://www.w3.org/1999/xlink" x="0px" y="0px"
	 viewBox="0 0 72 72" style="enable-background:new 0 0 72 72;" xml:space="preserve">
<style type="text/css">
	.st0{fill:#F91E1E;}
</style>
<g>
	<path class="st0" d="M36,69.1C17.7,69.1,2.9,54.2,2.9,36S17.7,2.8,36,2.8c18.3,0,33.1,14.9,33.1,33.1S54.2,69.1,36,69.1z"/>
	<path d="M36,4.8c17.2,0,31.1,14,31.1,31.1c0,8.3-3.2,16.1-9.1,22c-5.9,5.9-13.7,9.1-22,9.1c-17.2,0-31.1-14-31.1-31.1
		C4.8,18.8,18.8,4.8,36,4.8 M36,0.9C16.6,0.9,0.9,16.6,0.9,36C0.9,55.3,16.6,71,36,71C55.3,71,71,55.3,71,36S55.3,0.9,36,0.9L36,0.9
		z"/>
</g>
</svg>
