<?xml version="1.0" encoding="utf-8"?>
<!-- Generator: Adobe Illustrator 20.1.0, SVG Export Plug-In . SVG Version: 6.00 Build 0)  -->
<svg version="1.1" id="Layer_1" xmlns="http://www.w3.org/2000/svg" xmlns:xlink="http://www.w3.org/1999/xlink" x="0px" y="0px"
	 viewBox="0 0 792 408" style="enable-background:new 0 0 792 408;" xml:space="preserve">
<style type="text/css">
	.st0{fill:#FFFFFF;}
</style>
<g>
	<path class="st0" d="M46.4,172.5l-2.7,76.4l20.7,23.9l22.6,0l22.3-23.9l3.6-101.8h34.3l-4,114.6l-42,45.7H48.1L8.9,261.7l2.5-71
		L26,182l15.1-9.5L46.4,172.5z"/>
	<path class="st0" d="M710.9,282.1l2.7-76.4l-20.7-23.9h-22.6L648,205.7l-3.6,101.8h-34.3l4-114.6l42-45.7h53.2l39.1,45.7l-2.5,71
		l-14.6,8.7l-15.1,9.5L710.9,282.1z"/>
	<path class="st0" d="M196.5,272.7l41.5,0l22.6-21.9l1.6-45.3l-23.3-23.8h-24.1l1.2-34.7l39.9,0l41.5,42.6l-2.6,75.4l-43.7,42.2
		l-90.5,0l8.2-235.7l30.8-19.2l4.6,0L196.5,272.7z"/>
	<path class="st0" d="M412.5,190.7l30.7-18.2h4.6l-4.7,135h-90.5l-40.8-42.2l2.6-75.4l44.5-42.6l55,0l-1.2,34.7l-39.1,0l-25,23.8
		l-1.6,45.3l21.1,21.9h41.5L412.5,190.7z"/>
	<path class="st0" d="M508.7,48.4l-7.9,226.2h28l-0.2,5.4l-28.9,27.5h-34.3l8.4-241L504,48.4L508.7,48.4z"/>
	<path class="st0" d="M579.7,52.5L572,274.6l28,0l-0.2,5.4l-28.9,27.5h-34.3l8.3-236.9L575,52.5L579.7,52.5z"/>
</g>
<g>
	<path class="st0" d="M785.4,295.2c0,6.1-4.9,10.9-11.1,10.9c-6.2,0-11.2-4.8-11.2-10.9c0-6.1,5-10.8,11.2-10.8
		C780.6,284.4,785.4,289.1,785.4,295.2z M765.9,295.2c0,4.8,3.6,8.7,8.5,8.7c4.7,0.1,8.3-3.8,8.3-8.6c0-4.8-3.6-8.7-8.4-8.7
		C769.6,286.5,765.9,290.4,765.9,295.2z M772.6,300.8h-2.5V290c1-0.1,2.4-0.3,4.2-0.3c2,0,3,0.3,3.7,0.9c0.7,0.5,1.1,1.3,1.1,2.3
		c0,1.3-1,2.2-2.2,2.6v0.1c1.1,0.3,1.6,1.2,1.9,2.6c0.3,1.7,0.6,2.2,0.8,2.6h-2.6c-0.3-0.4-0.5-1.3-0.9-2.6
		c-0.2-1.1-0.9-1.7-2.2-1.7h-1.2V300.8z M772.7,294.7h1.2c1.4,0,2.5-0.5,2.5-1.6c0-1-0.7-1.7-2.3-1.7c-0.7,0-1.1,0.1-1.4,0.1V294.7z
		"/>
</g>
<g>
	<path class="st0" d="M353.3,337.2l-0.5,15.2l-6.7,6.9h-8.2l-0.5,13.9h-5.2l1.5-42.4H347L353.3,337.2z M344,354l3.6-3.7l0.4-11
		l-3.3-3.5h-6.1L338,354H344z"/>
	<path class="st0" d="M359.6,373.1l1.5-42.5c4.4,0,0.7,0,5.2,0l-1.5,42.5H359.6z"/>
	<path class="st0" d="M389.2,338.8l-3.1-3.3h-3.7l-3.3,3.3l-0.9,25.8l3.1,3.6h3.6l3.4-3.6l0.2-4.7l5.2-0.1l-0.2,6.7l-6.4,6.9h-8.1
		l-5.9-6.9l1-29.8l6.4-6.5h8l5.9,6.5l-0.2,6.4h-5.2L389.2,338.8z"/>
	<path class="st0" d="M406.5,347.9h2.7l8.7-17h5.7l-10,19.6l9.8,22.6h-5.7L409,353h-2.7l-0.7,20.1h-5.2l1.5-42.3h5.2L406.5,347.9z"
		/>
	<path class="st0" d="M434.7,330.6l-1.2,34l3.1,3.6h3.4l3.4-3.6l1.2-34h5.2l-1.3,35.9l-6.3,6.8h-8l-5.9-6.8l1.3-35.9H434.7z"/>
	<path class="st0" d="M477.4,337.2l-0.5,15.2l-6.7,6.9h-8.2l-0.5,13.9h-5.2l1.5-42.4h13.3L477.4,337.2z M468.1,354l3.6-3.7l0.4-11
		l-3.3-3.5h-6.1l-0.6,18.2H468.1z"/>
	<path class="st0" d="M495.9,330.8h12.5l6.1,6.4l-0.4,10.4l-3.2,3.7l4.1,4.2l-0.4,11.3l-6.6,6.3h-13.6L495.9,330.8z M505.8,349
		l3.1-3.6l0.2-6.2L506,336h-5.1l-0.5,13H505.8z M499.8,367.9h6.2l3.4-3.3l0.2-6.8l-3.5-3.6h-5.9L499.8,367.9z"/>
	<path class="st0" d="M527.1,330.7h10l4.8,42.4h-5.2l-1.3-11h-8.8l-2,11h-5.2L527.1,330.7z M532.4,335.9h-1.1l-3.8,21.1h7.4
		L532.4,335.9z"/>
	<path class="st0" d="M551.9,364.8l3.2,3.5h3.7l3.5-3.5l0.2-6.7l-14.9-10.6l0.4-10.6l6.3-6.3h7.9l5.8,6.3l-0.2,6.5h-5.1l0.2-4.4
		l-3.1-3.3h-3.6l-3.2,3.3l-0.2,5.9l14.8,10.6l-0.4,11.4l-6.5,6.6h-8.1l-6-6.6l0.3-7.8h5.1L551.9,364.8z"/>
	<path class="st0" d="M580.8,347.9h2.7l8.7-17h5.7l-10,19.6l9.8,22.6l-5.7,0l-8.7-20.1h-2.7l-0.7,20.1h-5.2l1.5-42.3h5.2
		L580.8,347.9z"/>
	<path class="st0" d="M618.5,349.6l-0.2,5.2h-10.2l-0.5,13.2h13l-0.2,5.1h-18.2l1.5-42.4c6.9,0,10.5,0,17.4,0l-0.2,5.1h-12.2
		l-0.5,13.7H618.5z"/>
	<path class="st0" d="M631.7,335.3h-7.5l0.2-4.6h20.2l-0.2,4.6h-7.5l-1.3,37.8h-5.2L631.7,335.3z"/>
	<path class="st0" d="M650.3,330.8h12.5l6.1,6.4l-0.4,10.4l-3.2,3.7l4.1,4.2l-0.4,11.3l-6.6,6.3h-13.6L650.3,330.8z M660.3,349
		l3.1-3.6l0.2-6.2l-3.2-3.3h-5.1l-0.5,13H660.3z M654.3,367.9h6.2l3.4-3.3l0.2-6.8l-3.5-3.6h-5.9L654.3,367.9z"/>
	<path class="st0" d="M681.5,330.7h10l4.8,42.4h-5.2l-1.3-11H681l-2,11h-5.2L681.5,330.7z M686.9,335.9h-1.1l-3.9,21.1h7.4
		L686.9,335.9z"/>
	<path class="st0" d="M708.4,330.7l-1.3,37.5h12.8l-0.2,4.9l-17.9,0l1.5-42.4H708.4z"/>
	<path class="st0" d="M731.8,330.7l-1.3,37.5h12.8l-0.2,4.9h-17.9l1.5-42.4H731.8z"/>
</g>
</svg>
