<?xml version="1.0" encoding="utf-8"?>
<!-- Generator: Adobe Illustrator 20.1.0, SVG Export Plug-In . SVG Version: 6.00 Build 0)  -->
<svg version="1.1" id="Layer_1" xmlns="http://www.w3.org/2000/svg" xmlns:xlink="http://www.w3.org/1999/xlink" x="0px" y="0px"
	 viewBox="0 0 300 300" style="enable-background:new 0 0 300 300;" xml:space="preserve">
<style type="text/css">
	.st0{fill:#FFFFFF;}
</style>
<g>
	<rect x="161.6" y="173.8" class="st0" width="38.8" height="12.3"/>
	<rect x="161.9" y="149.2" class="st0" width="77.2" height="12.3"/>
	<rect x="161.9" y="124.2" class="st0" width="77.2" height="12.3"/>
	<path class="st0" d="M93.3,143.3c13.4,0,36.9,6.7,41,52.6L122,197c-2.6-27.2-12.3-41-28.7-41c-16.8,0-26.5,13.8-28.7,41l-12.3-1.1
		C56.4,150,79.5,143.3,93.3,143.3z"/>
	<path class="st0" d="M93.3,89.9c-13.1,0-23.5,10.4-23.5,23.5c0,13.1,10.4,23.5,23.5,23.5c13.1,0,23.5-10.4,23.5-23.5
		C116.8,100.4,106.4,89.9,93.3,89.9z M93.3,124.2c-6,0-11.2-4.8-11.2-11.2c0-6.3,4.8-11.2,11.2-11.2c6,0,11.2,4.8,11.2,11.2
		C104.5,119.4,99.3,124.2,93.3,124.2z"/>
	<path class="st0" d="M273.8,61.2h-25H207H32.9c-7.5,0-13.4,6-13.1,13.1v143.2c0,7.1,6,13.1,13.1,13.1h240.9c7.1,0,13.1-6,13.1-13.1
		V74.3C286.8,67.2,280.9,61.2,273.8,61.2z M274.5,217.5c0,0.4-0.4,0.7-0.7,0.7H32.9c-0.4,0-0.7-0.4-0.7-0.7V74.3
		c0-0.4,0.4-0.7,0.7-0.7H207h41.8h25c0.4,0,0.7,0.4,0.7,0.7V217.5z"/>
</g>
</svg>
