<?xml version="1.0" encoding="utf-8"?>
<!-- Generator: Adobe Illustrator 20.1.0, SVG Export Plug-In . SVG Version: 6.00 Build 0)  -->
<svg version="1.1" id="Layer_1" xmlns="http://www.w3.org/2000/svg" xmlns:xlink="http://www.w3.org/1999/xlink" x="0px" y="0px"
	 viewBox="0 0 300 300" style="enable-background:new 0 0 300 300;" xml:space="preserve">
<style type="text/css">
	.st0{fill:#FFFFFF;}
</style>
<g>
	<path class="st0" d="M105.6,151.6c0-4.4,3.6-8.1,8.1-8.1c4.4,0,8.1,3.6,8.1,8.1v55.6c0,4.4-3.6,8.1-8.1,8.1c-4.5,0-8.1-3.6-8.1-8.1
		V151.6z"/>
	<path class="st0" d="M142.4,115.3c0-4.5,3.6-8.1,8.1-8.1c4.5,0,8.1,3.6,8.1,8.1v91.9c0,4.4-3.6,8.1-8.1,8.1c-4.4,0-8.1-3.6-8.1-8.1
		V115.3z"/>
	<path class="st0" d="M179.4,59.7c0-4.5,3.6-8.1,8.1-8.1s8.1,3.6,8.1,8.1v147.6c0,4.4-3.6,8.1-8.1,8.1c-4.5,0-8.1-3.6-8.1-8.1V59.7z
		"/>
	<path class="st0" d="M216.2,85c0-4.5,3.6-8.1,8.1-8.1c4.5,0,8.1,3.6,8.1,8.1v122.2c0,4.4-3.6,8.1-8.1,8.1c-4.4,0-8.1-3.6-8.1-8.1
		V85z"/>
	<path class="st0" d="M68.7,101.9c0-4.4,3.6-8.1,8.1-8.1c4.5,0,8.1,3.6,8.1,8.1v105.4c0,4.4-3.6,8.1-8.1,8.1c-4.4,0-8.1-3.6-8.1-8.1
		V101.9z"/>
	<path class="st0" d="M53.5,240.1c-4.5,0-8.1-3.6-8.1-8.1c0-4.4,3.6-8.1,8.1-8.1h194c4.5,0,8.1,3.6,8.1,8.1c0,4.5-3.6,8.1-8.1,8.1
		H53.5z"/>
</g>
</svg>
