<?xml version="1.0" encoding="utf-8"?>
<!-- Generator: Adobe Illustrator 20.1.0, SVG Export Plug-In . SVG Version: 6.00 Build 0)  -->
<svg version="1.1" id="Layer_1" xmlns="http://www.w3.org/2000/svg" xmlns:xlink="http://www.w3.org/1999/xlink" x="0px" y="0px"
	 viewBox="0 0 300 300" style="enable-background:new 0 0 300 300;" xml:space="preserve">
<style type="text/css">
	.st0{fill:#E6A000;}
</style>
<path class="st0" d="M107.1,269.7c2.9,1.1,6.1,0,7.7-2.6l94.9-152.5c1.2-2,1.3-4.4,0.2-6.5c-1.1-2-3.2-3.3-5.5-3.4h-38.3L179,37.6
	c0.4-1.9-0.1-3.9-1.4-5.4c-1.3-1.5-3.1-2.3-5.1-2.3h-63.1c-3.3,0-6.1,2.4-6.4,5.7L88.4,159.3c-0.2,1.8,0.4,3.7,1.6,5
	c1.2,1.4,3,2.2,4.8,2.1H119l-16.1,96C102.4,265.6,104.2,268.6,107.1,269.7L107.1,269.7z"/>
</svg>
