<?xml version="1.0" encoding="utf-8"?>
<!-- Generator: Adobe Illustrator 20.1.0, SVG Export Plug-In . SVG Version: 6.00 Build 0)  -->
<svg version="1.1" id="Layer_1" xmlns="http://www.w3.org/2000/svg" xmlns:xlink="http://www.w3.org/1999/xlink" x="0px" y="0px"
	 viewBox="0 0 300 137" style="enable-background:new 0 0 300 137;" xml:space="preserve">
<style type="text/css">
	.st0{enable-background:new    ;}
	.st1{fill:#E6A000;}
</style>
<g class="st0">
	<path class="st1" d="M53.3,96.3c0,4.8-1.6,8.4-4.9,11s-7.9,3.9-14,3.9h-5.5v18.5h-5.5V82.6h12.2C47.5,82.6,53.3,87.2,53.3,96.3z
		 M28.9,106.5h4.9c4.9,0,8.4-0.8,10.5-2.4c2.2-1.6,3.3-4.1,3.3-7.5c0-3.1-1-5.4-3.1-7c-2-1.5-5.2-2.3-9.5-2.3h-6.1V106.5z"/>
	<path class="st1" d="M86.5,129.7H60.2V82.6h26.3v4.9H65.7v15.2h19.5v4.8H65.7v17.3h20.8V129.7z"/>
	<path class="st1" d="M130.8,129.7h-6.3L98.8,90.2h-0.3c0.3,4.6,0.5,8.9,0.5,12.8v26.8H94V82.6h6.2l25.7,39.4h0.3
		c0-0.6-0.1-2.4-0.3-5.6c-0.2-3.1-0.2-5.4-0.2-6.8v-27h5.1V129.7z"/>
	<path class="st1" d="M178.4,105.7c0,7.8-2.1,13.7-6.3,17.8c-4.2,4.1-10.3,6.2-18.2,6.2h-13.1V82.6h14.4c7.3,0,13,2,17.1,6.1
		S178.4,98.4,178.4,105.7z M172.6,105.9c0-6.1-1.5-10.8-4.6-13.9s-7.7-4.7-13.7-4.7h-8V125h6.7c6.5,0,11.4-1.6,14.7-4.8
		S172.6,112.2,172.6,105.9z"/>
	<path class="st1" d="M185.9,129.7V82.6h5.5v47.1H185.9z"/>
	<path class="st1" d="M238.1,129.7h-6.3l-25.7-39.5h-0.3c0.3,4.6,0.5,8.9,0.5,12.8v26.8h-5.1V82.6h6.2l25.7,39.4h0.3
		c0-0.6-0.1-2.4-0.3-5.6c-0.2-3.1-0.2-5.4-0.2-6.8v-27h5.1V129.7z"/>
	<path class="st1" d="M268.8,105h16v22.9c-2.5,0.8-5,1.4-7.6,1.8s-5.6,0.6-9,0.6c-7.1,0-12.7-2.1-16.7-6.4c-4-4.2-6-10.2-6-17.8
		c0-4.9,1-9.2,2.9-12.9s4.8-6.5,8.5-8.4s8-2.9,13-2.9c5,0,9.7,0.9,14.1,2.8l-2.1,4.8c-4.3-1.8-8.3-2.7-12.3-2.7
		c-5.7,0-10.2,1.7-13.4,5.1s-4.8,8.2-4.8,14.2c0,6.4,1.6,11.2,4.7,14.5c3.1,3.3,7.7,4.9,13.7,4.9c3.3,0,6.5-0.4,9.6-1.1v-14.5h-10.5
		V105z"/>
</g>
<g class="st0">
	<path class="st1" d="M75.6,44.2c0,4.1-1.5,7.4-4.5,9.7c-3,2.3-7.1,3.5-12.2,3.5c-5.6,0-9.9-0.7-12.9-2.2v-5.3
		c1.9,0.8,4,1.5,6.3,1.9c2.3,0.5,4.5,0.7,6.8,0.7c3.7,0,6.4-0.7,8.2-2.1c1.8-1.4,2.8-3.3,2.8-5.8c0-1.6-0.3-3-1-4
		c-0.7-1-1.8-2-3.3-2.9c-1.5-0.9-3.9-1.9-7-3c-4.4-1.6-7.5-3.4-9.4-5.6c-1.9-2.1-2.8-5-2.8-8.4c0-3.6,1.4-6.5,4.1-8.7
		C53.4,10,57,8.9,61.5,8.9c4.7,0,9,0.9,12.9,2.6l-1.7,4.8c-3.9-1.6-7.7-2.4-11.3-2.4c-2.9,0-5.2,0.6-6.8,1.9c-1.6,1.2-2.4,3-2.4,5.2
		c0,1.6,0.3,3,0.9,4c0.6,1,1.6,2,3,2.9c1.4,0.9,3.6,1.8,6.6,2.9c4.9,1.8,8.3,3.7,10.2,5.7C74.6,38.3,75.6,40.9,75.6,44.2z"/>
	<path class="st1" d="M123.1,33.1c0,6-1.2,11.1-3.6,15c-2.4,4-5.9,6.7-10.3,8.1l11.2,11.7h-8l-9.2-10.6l-1.8,0.1
		c-6.9,0-12.3-2.1-16.1-6.4c-3.8-4.2-5.7-10.2-5.7-18c0-7.7,1.9-13.6,5.7-17.8c3.8-4.2,9.2-6.3,16.1-6.3c6.8,0,12.1,2.1,15.9,6.4
		S123.1,25.5,123.1,33.1z M85.6,33.1c0,6.4,1.4,11.2,4.1,14.5c2.7,3.3,6.7,4.9,11.8,4.9c5.2,0,9.2-1.6,11.8-4.9
		c2.7-3.3,4-8.1,4-14.5c0-6.3-1.3-11.1-4-14.4c-2.7-3.3-6.6-4.9-11.8-4.9c-5.2,0-9.2,1.6-11.9,4.9C87,22,85.6,26.8,85.6,33.1z"/>
	<path class="st1" d="M166.3,9.6v30.5c0,5.4-1.6,9.6-4.9,12.7s-7.7,4.6-13.4,4.6s-10.1-1.5-13.2-4.6c-3.1-3.1-4.7-7.3-4.7-12.8V9.6
		h5.5v30.7c0,3.9,1.1,7,3.2,9.1c2.1,2.1,5.3,3.2,9.5,3.2c4,0,7-1.1,9.2-3.2c2.1-2.1,3.2-5.2,3.2-9.1V9.6H166.3z"/>
	<path class="st1" d="M205.4,56.7l-5.9-15h-18.9l-5.8,15h-5.5l18.6-47.3h4.6L211,56.7H205.4z M197.8,36.8l-5.5-14.6
		c-0.7-1.8-1.4-4.1-2.2-6.8c-0.5,2.1-1.1,4.3-2,6.8l-5.5,14.6H197.8z"/>
	<path class="st1" d="M252.2,32.7c0,7.8-2.1,13.7-6.3,17.8c-4.2,4.1-10.3,6.2-18.2,6.2h-13.1V9.6H229c7.3,0,13,2,17.1,6.1
		S252.2,25.4,252.2,32.7z M246.4,32.9c0-6.1-1.5-10.8-4.6-13.9s-7.7-4.7-13.7-4.7h-8V52h6.7c6.5,0,11.4-1.6,14.7-4.8
		S246.4,39.2,246.4,32.9z"/>
</g>
</svg>
