<?xml version="1.0" encoding="utf-8"?>
<!-- Generator: Adobe Illustrator 20.1.0, SVG Export Plug-In . SVG Version: 6.00 Build 0)  -->
<svg version="1.1" id="Layer_1" xmlns="http://www.w3.org/2000/svg" xmlns:xlink="http://www.w3.org/1999/xlink" x="0px" y="0px"
	 viewBox="0 0 300 300" style="enable-background:new 0 0 300 300;" xml:space="preserve">
<style type="text/css">
	.st0{fill:#FFFFFF;}
</style>
<path class="st0" d="M256.7,161.3c0,1.3,0,1.3-1.3,1.3c-3.9,1.3-9,1.3-12.9,1.3c-5.2,0-9,3.9-10.3,9c-1.3,6.4-5.2,12.9-7.7,19.3
	c-2.6,3.9-2.6,9,1.3,12.9c2.6,3.9,5.2,7.7,7.7,10.3v1.3L218,232.2h-1.3c-3.9-2.6-7.7-5.2-10.3-7.7c-3.9-2.6-10.3-2.6-14.2,0
	c-6.4,3.9-12.9,6.4-19.3,7.7c-5.2,1.3-7.7,5.2-9,10.3c0,3.9-1.3,9-1.3,12.9c0,1.3-1.3,1.3-1.3,1.3h-21.9c-1.3,0-1.3,0-1.3-1.3
	c-1.3-3.9-1.3-9-1.3-12.9c0-5.2-3.9-9-9-10.3c-6.4-1.3-12.9-5.2-19.3-7.7c-3.9-2.6-9-2.6-14.2,0c-3.9,2.6-7.7,5.2-10.3,7.7h-1.3
	L67.2,218v-1.3c2.6-3.9,5.2-7.7,7.7-10.3c2.6-3.9,3.9-9,1.3-14.2c-3.9-6.4-6.4-12.9-7.7-19.3c-1.3-5.2-5.2-7.7-10.3-9
	c-3.9,0-9-1.3-12.9-1.3c-1.3,0-1.3-1.3-1.3-1.3v-21.9c0-1.3,0-1.3,1.3-1.3c3.9-1.3,9-1.3,12.9-1.3c5.2,0,9-3.9,10.3-9
	c1.3-6.4,5.2-12.9,7.7-19.3c2.6-3.9,2.6-10.3-1.3-14.2c-2.6-2.6-5.2-6.4-7.7-10.3v-1.3l15.5-15.5H84c3.9,2.6,7.7,5.2,10.3,7.7
	c3.9,2.6,9,3.9,14.2,1.3c6.4-3.9,12.9-6.4,19.3-7.7c5.2-1.3,7.7-5.2,9-10.3c0-3.9,1.3-9,1.3-12.9c0-1.3,1.3-1.3,1.3-1.3H160
	c1.3,0,1.3,0,1.3,1.3c1.3,3.9,1.3,9,1.3,12.9c0,5.2,3.9,9,9,10.3c6.4,1.3,12.9,5.2,19.3,7.7c3.9,2.6,10.3,2.6,14.2-1.3
	c3.9-2.6,7.7-5.2,11.6-7.7h1.3l15.5,15.5V84c-2.6,3.9-5.2,7.7-7.7,10.3c-3.9,3.9-3.9,10.3-1.3,14.2c3.9,6.4,6.4,12.9,7.7,19.3
	c1.3,5.2,5.2,7.7,10.3,9c3.9,0,9,1.3,12.9,1.3c1.3,0,1.3,1.3,1.3,1.3V161.3z M261.9,126.5c-5.2-1.3-9-1.3-14.2-2.6
	c0,0-1.3,0-1.3-1.3c-2.6-7.7-5.2-15.5-9-21.9v-1.3c2.6-3.9,5.2-7.7,9-11.6c3.9-5.2,2.6-11.6-1.3-16.8l-15.5-15.5
	c-3.9-3.9-11.6-5.2-16.8-1.3c-3.9,2.6-7.7,5.2-11.6,9H200c-7.7-3.9-14.2-7.7-21.9-9c0,0-1.3,0-1.3-1.3c0-5.2-1.3-9-2.6-14.2
	c-1.3-6.4-6.4-10.3-12.9-10.3h-21.9c-6.4,0-11.6,5.2-12.9,10.3c0,5.2-1.3,10.3-1.3,14.2c0,0,0,1.3-1.3,1.3c-7.7,2.6-15.5,5.2-23.2,9
	h-1.3c-3.9-2.6-7.7-5.2-10.3-7.7c-5.2-3.9-12.9-3.9-16.8,1.3L56.9,72.4c-5.2,3.9-5.2,11.6-1.3,16.8c2.6,3.9,5.2,7.7,9,11.6v1.3
	c-5.2,6.4-7.7,14.2-10.3,21.9c0,0,0,1.3-1.3,1.3c-5.2,0-9,1.3-14.2,2.6c-5.2,0-10.3,5.2-10.3,11.6v21.9c0,6.4,5.2,11.6,10.3,12.9
	c5.2,1.3,9,1.3,14.2,2.6c0,0,1.3,0,1.3,1.3c2.6,7.7,5.2,15.5,9,21.9v1.3c-2.6,3.9-5.2,7.7-9,11.6c-3.9,5.2-2.6,11.6,1.3,16.8
	l15.5,15.5c3.9,3.9,11.6,5.2,16.8,1.3c3.9-2.6,7.7-5.2,11.6-9h1.3c7.7,3.9,14.2,7.7,21.9,9c0,0,1.3,0,1.3,1.3c0,5.2,1.3,9,2.6,14.2
	c1.3,6.4,6.4,10.3,12.9,10.3h21.9c6.4,0,11.6-5.2,12.9-10.3c1.3-5.2,1.3-9,2.6-14.2c0,0,0-1.3,1.3-1.3c7.7-2.6,15.5-5.2,21.9-9h1.3
	c3.9,2.6,7.7,5.2,11.6,9c5.2,3.9,11.6,2.6,16.8-1.3l15.5-15.5c3.9-3.9,5.2-11.6,1.3-16.8c-2.6-3.9-5.2-7.7-9-11.6V200
	c3.9-7.7,7.7-14.2,9-21.9c0,0,0-1.3,1.3-1.3c5.2,0,9-1.3,14.2-2.6c6.4-1.3,10.3-6.4,10.3-12.9v-21.9
	C272.2,133,267,127.8,261.9,126.5z"/>
<path class="st0" d="M149.7,188.4c-20.6,0-38.7-16.8-38.7-38.7c0-21.9,16.8-38.7,38.7-38.7c20.6,0,38.7,16.8,38.7,38.7
	C188.4,171.6,171.6,188.4,149.7,188.4z M149.7,96.9c-29.7,0-52.9,23.2-52.9,52.9c0,29.7,23.2,52.9,52.9,52.9s52.9-23.2,52.9-52.9
	C202.6,121.3,179.4,96.9,149.7,96.9z"/>
</svg>
