<?xml version="1.0" encoding="utf-8"?>
<!-- Generator: Adobe Illustrator 20.1.0, SVG Export Plug-In . SVG Version: 6.00 Build 0)  -->
<svg version="1.1" id="Layer_1" xmlns="http://www.w3.org/2000/svg" xmlns:xlink="http://www.w3.org/1999/xlink" x="0px" y="0px"
	 viewBox="0 0 300 300" style="enable-background:new 0 0 300 300;" xml:space="preserve">
<style type="text/css">
	.st0{fill:#FFFFFF;}
</style>
<path class="st0" d="M149,289C71.8,289,9,226.2,9,149C9,71.8,71.8,9,149,9c77.2,0,140,62.8,140,140C289,226.2,226.2,289,149,289z
	 M149,29C82.9,29,29,82.9,29,149s53.8,120,120,120s120-53.8,120-120S215.2,29,149,29z"/>
<path class="st0" d="M163.2,149.2l45.9-45c3.9-3.9,4-10.2,0.1-14.1c-3.9-3.9-10.2-4-14.1-0.1l-45.9,45l-45-45.9
	c-3.9-3.9-10.2-4-14.1-0.1c-3.9,3.9-4,10.2-0.1,14.1l45,45.9l-45.9,45c-3.9,3.9-4,10.2-0.1,14.1c2,2,4.5,3,7.1,3c2.5,0,5.1-1,7-2.9
	l45.9-45l45,45.9c2,2,4.5,3,7.1,3c2.5,0,5.1-1,7-2.9c3.9-3.9,4-10.2,0.1-14.1L163.2,149.2z"/>
</svg>
