<?xml version="1.0" encoding="utf-8"?>
<!-- Generator: Adobe Illustrator 20.1.0, SVG Export Plug-In . SVG Version: 6.00 Build 0)  -->
<svg version="1.1" id="Layer_1" xmlns="http://www.w3.org/2000/svg" xmlns:xlink="http://www.w3.org/1999/xlink" x="0px" y="0px"
	 viewBox="0 0 300 300" style="enable-background:new 0 0 300 300;" xml:space="preserve">
<style type="text/css">
	.st0{fill:#FFFFFF;}
</style>
<path class="st0" d="M41.4,135.3v112c0,12.4,10.1,22.2,22.5,22.2h171.1c12.4,0,22.5-10.1,22.5-22.2v-112c0-12.4-10.1-22.2-22.5-22.2
	h-45.7c-4.6,0-8.2,3.6-8.2,8.2s3.6,8.2,8.2,8.2h45.7c3.3,0,6.2,2.6,6.2,5.9v112c0,3.3-2.6,5.9-6.2,5.9H63.9c-3.3,0-6.2-2.6-6.2-5.9
	v-112c0-3.3,2.6-5.9,6.2-5.9h39.2c4.6,0,8.2-3.6,8.2-8.2s-3.6-8.2-8.2-8.2H63.9C51.5,113.1,41.4,123.2,41.4,135.3z"/>
<path class="st0" d="M147.9,207.5c4.6,0,8.2-3.6,8.2-8.2V56L191,82.4c1.6,1,3.3,1.6,4.9,1.6c2.6,0,4.9-1,6.5-3.3
	c2.6-3.6,2-8.8-1.6-11.4l-48-36.3c0,0,0,0-0.3,0c0,0-0.3-0.3-0.7-0.3c-0.3,0-0.7-0.3-0.7-0.3c-0.3,0-0.3,0-0.7-0.3
	c-0.3,0-0.7-0.3-1-0.3c-0.3,0-0.3,0-0.7,0c-1-0.3-2-0.3-2.9,0c-0.3,0-0.3,0-0.7,0c-0.3,0-0.7,0.3-1,0.3c-0.3,0-0.3,0-0.7,0.3
	c-0.3,0-0.7,0.3-0.7,0.3c-0.3,0-0.3,0.3-0.7,0.3c0,0,0,0-0.3,0L95,69.7c-3.6,2.6-4.2,7.8-1.6,11.4c2.6,3.6,7.8,4.2,11.4,1.6
	L139.7,56v143.4C139.7,203.9,143.3,207.5,147.9,207.5z"/>
</svg>
