<?xml version="1.0" encoding="utf-8"?>
<!-- Generator: Adobe Illustrator 20.1.0, SVG Export Plug-In . SVG Version: 6.00 Build 0)  -->
<svg version="1.1" id="Layer_1" xmlns="http://www.w3.org/2000/svg" xmlns:xlink="http://www.w3.org/1999/xlink" x="0px" y="0px"
	 viewBox="0 0 300 300" style="enable-background:new 0 0 300 300;" xml:space="preserve">
<style type="text/css">
	.st0{fill:#FFFFFF;}
</style>
<g>
	<path class="st0" d="M150.1,64.6c-21.4,0-39,17.5-39,39c0,21.4,17.5,39,39,39c21.4,0,39-17.5,39-39
		C189.1,82.2,171.5,64.6,150.1,64.6z M150.1,132.9c-16.2,0-29.2-13-29.2-29.2c0-16.2,13-29.2,29.2-29.2c16.2,0,29.2,13.3,29.2,29.2
		C179.3,119.6,166.3,132.9,150.1,132.9z"/>
	<path class="st0" d="M182.3,152.7c-1.9,0-3.6,0.6-4.9,1.9c-7.5,6.8-17.2,10.7-27.3,10.7c-10.1,0-19.8-3.9-27.3-11
		c-1.3-1.3-3.2-1.9-4.9-1.9c-23.7,1.9-42.6,22.1-42.6,46.1v5.8c0,12.7,10.1,22.7,22.7,22.7l104,0c12.7,0,22.7-10.1,22.7-22.7v-5.8
		C224.8,174.5,206,154.3,182.3,152.7z M215.1,204.7c0,6.8-4.5,11.7-10.4,11.7l-109.2,0c-5.8,0-10.4-5.2-10.4-11.7v-3.9
		c0-19.8,12.7-36.7,29.6-39.6c10.1,9.4,22.1,11.7,35.4,11.7c13.3,0,25.7-2.3,35.4-12c16.9,3.2,29.6,19.8,29.6,39.6V204.7z"/>
	<path class="st0" d="M234.6,84.1c-17.9,0-32.5,14.6-32.5,32.5c0,17.9,14.6,32.5,32.5,32.5c17.9,0,32.5-14.6,32.5-32.5
		C267.1,98.8,252.5,84.1,234.6,84.1z M234.6,139.4c-12.7,0-22.7-10.4-22.7-22.7s10.1-22.7,22.7-22.7c12.7,0,22.7,10.4,22.7,22.7
		S247.3,139.4,234.6,139.4z"/>
	<path class="st0" d="M260.6,158.9h-3.2c-1.9,0-3.6,0.6-4.9,1.9c-5.5,5.8-12,8.4-20.1,7.8c-2.3-0.3-4.2,2.9-4.2,5.2
		c0.3,3.2,2.9,4.5,6.5,4.5c9.7,0,18.5-3.2,25.3-9.7h3.9c10.7,0,19.8,12.3,19.5,23.1c0,5.2-4.5,12.7-9.7,12.7c-9.7,0-27.9,0-35.4,0
		c-3.2,0-6.5,1-7.1,4.2c-0.6,3.9,2.6,5.8,6.5,5.8H270c12,0,22.4-9.4,22.7-21.4C293.7,174.1,278.8,158.9,260.6,158.9z"/>
	<path class="st0" d="M65.6,84.1c-17.9,0-32.5,14.6-32.5,32.5c0,17.9,14.6,32.5,32.5,32.5s32.5-14.6,32.5-32.5
		C98.1,98.8,83.5,84.1,65.6,84.1z M65.6,139.4c-12.7,0-22.7-10.4-22.7-22.7s10.1-22.7,22.7-22.7c12.7,0,22.7,10.4,22.7,22.7
		S78.3,139.4,65.6,139.4z"/>
	<path class="st0" d="M67.2,211.8c2.6-2.9,0-7.5-3.9-7.5H30.2c-7.1,0-13.3-5.8-13.3-13c0-10.7,8.8-22.7,19.5-22.7h3.9
		c7.1,6.5,15.6,9.7,25.3,9.7c5.5,0,6.8-8.8,1-9.7c-0.3,0-0.6,0-1,0c-7.1,0-13.3-2.6-18.2-7.8c-1.3-1.3-2.9-1.9-4.5-1.9h-3.2
		c-18.2,0-33.1,15.3-32.5,33.8c0.3,12,10.7,21.4,22.7,21.4h32.5C64.3,214.1,65.9,213.1,67.2,211.8z"/>
</g>
</svg>
