<?xml version="1.0" encoding="utf-8"?>
<!-- Generator: Adobe Illustrator 20.1.0, SVG Export Plug-In . SVG Version: 6.00 Build 0)  -->
<svg version="1.1" id="Layer_1" xmlns="http://www.w3.org/2000/svg" xmlns:xlink="http://www.w3.org/1999/xlink" x="0px" y="0px"
	 viewBox="0 0 300 300" style="enable-background:new 0 0 300 300;" xml:space="preserve">
<style type="text/css">
	.st0{fill:#FFFFFF;}
</style>
<path class="st0" d="M243.3,33.6H56.1c-17.3,0-31.3,14-31.3,31.3v124.9c0,17.3,14,31.3,31.3,31.3h96.5h10.1c2.7,0,5,1,7,2.7
	l46.3,41.3c2,1.7,4.7,2.7,7,2.7c2.6,0,5.6-1,7.7-3.4c2.3-2.5,3.1-5.7,2.6-8.6v-34.7h10c17.3,0,31.3-14,31.3-31.3V64.9
	C274.6,47.6,260.6,33.6,243.3,33.6z M103.3,140.3c-9.8,0-17.7-7.9-17.7-17.7c0-9.8,7.9-17.7,17.7-17.7c9.8,0,17.7,7.9,17.7,17.7
	C121,132.4,113.1,140.3,103.3,140.3z M148.7,140.3c-9.8,0-17.7-7.9-17.7-17.7c0-9.8,7.9-17.7,17.7-17.7c9.8,0,17.7,7.9,17.7,17.7
	C166.3,132.4,158.4,140.3,148.7,140.3z M194,140.3c-9.8,0-17.7-7.9-17.7-17.7c0-9.8,7.9-17.7,17.7-17.7s17.7,7.9,17.7,17.7
	C211.7,132.4,203.8,140.3,194,140.3z"/>
</svg>
