<?xml version="1.0" encoding="utf-8"?>
<!-- Generator: Adobe Illustrator 20.1.0, SVG Export Plug-In . SVG Version: 6.00 Build 0)  -->
<svg version="1.1" id="Layer_1" xmlns="http://www.w3.org/2000/svg" xmlns:xlink="http://www.w3.org/1999/xlink" x="0px" y="0px"
	 viewBox="0 0 300 300" style="enable-background:new 0 0 300 300;" xml:space="preserve">
<style type="text/css">
	.st0{fill:#FFFFFF;}
</style>
<path class="st0" d="M150.3,41.7C92.8,41.7,46,88.4,46,145.9c0,57.5,46.8,104.2,104.2,104.2h0c57.5,0,104.2-46.8,104.2-104.2
	C254.5,88.4,207.8,41.7,150.3,41.7z M150.3,245l0-5.1c-23.9,0-45.7-9-62.3-23.7c12.9-5.3,38.5-14.8,38.8-14.9l3.1-1.2l1-19l-1-1.4
	c-1.3-1.9-4.8-7.6-5.8-11.4c-1.4-5.2-2.1-9.4-2.1-9.4l-0.7-6.8l-5.3,2.5c-1.9-4.9-4.2-12.5-4.9-16.6l4.6,2.3l-1.4-9.6
	c-1.3-9.1-2.5-20.4-2.2-22.6c0.2-0.8,0.2-1.7,0.3-2.8c0.5-7.8,1.6-26,39.2-26c37.7,0,38.5,19,38.8,26.2c0,1,0.1,1.8,0.2,2.5l0,0.2
	c0.4,2.2-0.8,13.4-2.2,22.4l-1.5,9.7l4.6-2.3c-0.8,4.4-3.2,12.2-4.8,16.6l-4.9-2.3l-1.1,6.6c0,0-0.7,4.2-2.1,9.4
	c-0.9,3.6-4.3,8.4-5.5,9.9l-1.2,1.5l1,18l2.5,1.4c1.6,0.9,6.3,2.6,17.4,6.6c7.6,2.7,16.8,6,22.3,8.3c-16.9,16.1-39.7,26-64.9,26V245
	z M222.6,206c-4.8-2.2-16.2-6.3-26.2-9.9c-4.7-1.7-10.3-3.7-13.5-4.9l-0.4-8.2c1.8-2.5,5-7.3,6.2-12.1c0.6-2.3,1.1-4.4,1.4-6.1
	c2.4-0.7,4.6-2.4,5.8-5.3c0.1-0.2,7.2-19,6.1-25.8l-0.1-0.3c-0.6-2.6-1.6-4.2-2.7-5.3c1-7.1,2.3-17.9,1.6-21.9c0-0.2,0-0.8-0.1-1.2
	c-0.2-4-0.6-13.3-7.3-21.4c-7.9-9.7-22-14.6-41.7-14.6c-19.7,0-33.7,4.8-41.7,14.2c-6.8,8-7.3,17-7.6,21.3c0,0.5-0.1,1.1-0.1,1.4
	l0,0.2c-0.7,3.5,0.6,14.6,1.6,21.9c-1.1,1.1-2.2,2.7-2.7,5.3c-1.5,6.9,5.9,25.9,6,26.1c1.2,2.9,3.4,4.6,5.8,5.3
	c0.4,1.7,0.8,3.8,1.4,6.1c1.3,4.8,4.6,10.4,6.2,13.1l-0.5,9c-8.3,3.1-30.7,11.5-40,15.6c-14.9-16.6-23.9-38.6-23.9-62.6
	c0-51.9,42.2-94.1,94.1-94.1c51.9,0,94.1,42.2,94.1,94.1C244.4,168.7,236.2,189.7,222.6,206z"/>
</svg>
