<?xml version="1.0" encoding="utf-8"?>
<!-- Generator: Adobe Illustrator 20.1.0, SVG Export Plug-In . SVG Version: 6.00 Build 0)  -->
<svg version="1.1" id="Layer_1" xmlns="http://www.w3.org/2000/svg" xmlns:xlink="http://www.w3.org/1999/xlink" x="0px" y="0px"
	 viewBox="0 0 300 300" style="enable-background:new 0 0 300 300;" xml:space="preserve">
<style type="text/css">
	.st0{fill:#FFFFFF;}
</style>
<g>
	<path class="st0" d="M150.1,64.6c-21.4,0-39,17.5-39,39c0,21.4,17.5,39,39,39c21.4,0,39-17.5,39-39
		C189.1,82.2,171.5,64.6,150.1,64.6z"/>
	<path class="st0" d="M182.3,152.7c-1.9,0-3.6,0.6-4.9,1.9c-7.5,6.8-17.2,10.7-27.3,10.7s-19.8-3.9-27.3-11
		c-1.3-1.3-3.2-1.9-4.9-1.9c-23.7,1.9-42.6,22.1-42.6,46.1v5.8C75.3,217,85.4,227,98,227h104c12.7,0,22.7-10.1,22.7-22.7v-5.8
		C224.8,174.5,206,154.3,182.3,152.7z"/>
	<path class="st0" d="M234.6,84.1c-17.9,0-32.5,14.6-32.5,32.5s14.6,32.5,32.5,32.5s32.5-14.6,32.5-32.5
		C267.1,98.8,252.5,84.1,234.6,84.1z"/>
	<path class="st0" d="M65.6,84.1c-17.9,0-32.5,14.6-32.5,32.5s14.6,32.5,32.5,32.5s32.5-14.6,32.5-32.5
		C98.1,98.8,83.5,84.1,65.6,84.1z"/>
	<path class="st0" d="M67.4,206.5c-2.2-7.3-4.5-19.7,1.4-29.6c2.5-2.5,2.1-7.7-2.2-8.3c-0.3,0-0.6,0-1,0c-7.1,0-13.3-2.6-18.2-7.8
		c-1.3-1.3-2.9-1.9-4.5-1.9h-3.2c-18.2,0-33.1,15.3-32.5,33.8c0.3,12,10.7,21.4,22.7,21.4h32.5c0,0,0.1,0,0.1,0
		c2.6,0.2,6,0.1,7.1-1.4c0,0-0.6-1.4-1.4-3.6C68.2,208.2,67.9,207.3,67.4,206.5z"/>
	<path class="st0" d="M260.6,158.9h-3.2c-1.9,0-3.6,0.6-4.9,1.9c-5.5,5.8-12,8.4-20.1,7.8c-2.3-0.3-4.2,2.9-4.2,5.2
		c0.1,1.2,0.6,2.2,1.3,2.9c9.2,15-0.7,36-0.7,36c1.1,1.4,4,1.6,6.5,1.5c0.7,0.2,1.5,0.3,2.4,0.3H270c12,0,22.4-9.4,22.7-21.4
		C293.7,174.1,278.8,158.9,260.6,158.9z"/>
</g>
</svg>
